<svg id="Ebene_1" data-name="Ebene 1" xmlns="http://www.w3.org/2000/svg" viewBox="0 0 182.47 33.57"><defs><style>.cls-1{fill:#3c3c3b;}.cls-2{fill:#1da9d9;}</style></defs><path class="cls-1" d="M49.09,25.5a1.36,1.36,0,0,1-1.36,1.36H46.36A1.36,1.36,0,0,1,45,25.5V1.36A1.36,1.36,0,0,1,46.36,0h1.36a1.36,1.36,0,0,1,1.37,1.36V8.1a4.58,4.58,0,0,1,3.74-1.59c3.1,0,5.41,2,5.41,6.24V25.5a1.36,1.36,0,0,1-1.36,1.36H55.52a1.36,1.36,0,0,1-1.36-1.36v-12c0-2.42-1.14-3.14-2.54-3.14s-2.53.72-2.53,3.14Z"/><path class="cls-1" d="M71.68,20.16h1.55a1.34,1.34,0,0,1,1.36,1.3c0,3.44-2.54,5.82-6.43,5.82s-6.62-2.24-6.62-6.7V13.2c0-4.46,2.84-6.69,6.62-6.69s6.62,2.23,6.62,6.69v3.22a1.36,1.36,0,0,1-1.36,1.36H65.63v2.54c0,2.42,1.13,3.14,2.53,3.14a2.09,2.09,0,0,0,2.35-2.09A1.19,1.19,0,0,1,71.68,20.16Zm-6.05-5.44H70.7V13.47c0-2.42-1.14-3.14-2.54-3.14s-2.53.72-2.53,3.14Z"/><path class="cls-1" d="M87.16,8.29a1.36,1.36,0,0,1,1.36-1.37h1.37a1.36,1.36,0,0,1,1.36,1.37V27.16c0,4.47-2.84,6.51-6.62,6.51-4,0-6.42-2.45-6.43-5.43a1.37,1.37,0,0,1,1.36-1.38h1.5A1.19,1.19,0,0,1,82.28,28c0,1.11.71,2,2.35,2,1.4,0,2.53-.53,2.53-2.95V23.72a4.59,4.59,0,0,1-3.74,1.59c-3.1,0-5.41-2-5.41-6.24V8.29a1.36,1.36,0,0,1,1.36-1.37h1.36A1.37,1.37,0,0,1,82.1,8.29V18.35c0,2.42,1.13,3.14,2.53,3.14s2.53-.72,2.53-3.14Z"/><path class="cls-1" d="M99.2,12.94V25.5a1.36,1.36,0,0,1-1.36,1.36H96.48a1.36,1.36,0,0,1-1.36-1.36V12.64c0-4.32,2.19-5.91,6-5.91a9.19,9.19,0,0,1,1.93.15c.72.16,1.18.46,1.18,1.37V9.34c0,.91-.46,1.48-1.37,1.33a6.3,6.3,0,0,0-1.17-.11C99.92,10.56,99.2,11.16,99.2,12.94Z"/><path class="cls-1" d="M115.78,20.16h1.55a1.34,1.34,0,0,1,1.36,1.3c0,3.44-2.54,5.82-6.43,5.82s-6.62-2.24-6.62-6.7V13.2c0-4.46,2.84-6.69,6.62-6.69s6.62,2.23,6.62,6.69v3.22a1.36,1.36,0,0,1-1.36,1.36h-7.79v2.54c0,2.42,1.13,3.14,2.53,3.14a2.1,2.1,0,0,0,2.35-2.09A1.19,1.19,0,0,1,115.78,20.16Zm-6-5.44h5.07V13.47c0-2.42-1.14-3.14-2.54-3.14s-2.53.72-2.53,3.14Z"/><path class="cls-1" d="M125.89,20.32c0,2.42,1.14,3.14,2.53,3.14a2.27,2.27,0,0,0,2.35-2.52,1.16,1.16,0,0,1,1.17-1.15h1.55a1.35,1.35,0,0,1,1.37,1.31c0,3.77-2.67,6.18-6.44,6.18s-6.62-2.24-6.62-6.7V13.2c0-4.28,2.62-6.51,6.17-6.68a6.69,6.69,0,0,1,6.7,4.91c.46,1.71.07,2.57-1.18,2.57h-1.55a1.17,1.17,0,0,1-1.17-1.16,2.27,2.27,0,0,0-2.35-2.51c-1.39,0-2.53.72-2.53,3.14Z"/><path class="cls-1" d="M141.9,12.94V25.5a1.36,1.36,0,0,1-1.36,1.36h-1.36a1.36,1.36,0,0,1-1.37-1.36V12.64c0-4.32,2.2-5.91,6-5.91a9.19,9.19,0,0,1,1.93.15c.72.16,1.17.46,1.17,1.37V9.34c0,.91-.45,1.48-1.36,1.33a6.3,6.3,0,0,0-1.17-.11C142.62,10.56,141.9,11.16,141.9,12.94Z"/><path class="cls-1" d="M150,6.92h1.36a1.36,1.36,0,0,1,1.36,1.37v12c0,2.42,1.14,3.14,2.54,3.14s2.53-.72,2.53-3.14v-12a1.37,1.37,0,0,1,1.37-1.37h1.36a1.36,1.36,0,0,1,1.36,1.37V20.58c0,4.46-2.84,6.7-6.62,6.7s-6.62-2.24-6.62-6.7V8.29A1.36,1.36,0,0,1,150,6.92Z"/><path class="cls-1" d="M165.79,1.74A1.36,1.36,0,0,1,167.15.38h1.36a1.37,1.37,0,0,1,1.37,1.36V3a1.36,1.36,0,0,1-1.37,1.36h-1.36A1.36,1.36,0,0,1,165.79,3Zm0,6.55a1.36,1.36,0,0,1,1.36-1.37h1.36a1.37,1.37,0,0,1,1.37,1.37V25.5a1.36,1.36,0,0,1-1.37,1.36h-1.36a1.36,1.36,0,0,1-1.36-1.36Z"/><path class="cls-1" d="M179.37,27c-3.59,0-5.59-1.51-5.59-5.6V3.4A1.36,1.36,0,0,1,175.14,2h1.36a1.36,1.36,0,0,1,1.36,1.36V6.92h3.25a1.36,1.36,0,0,1,1.36,1.37V9.38a1.36,1.36,0,0,1-1.36,1.36h-3.25V21.11a2.08,2.08,0,0,0,2.06,2.08,6.58,6.58,0,0,0,1.19-.11c.91-.15,1.36.41,1.36,1.32v1.1a1.22,1.22,0,0,1-1.17,1.36A9.19,9.19,0,0,1,179.37,27Z"/><path class="cls-2" d="M31.66,0H2.34A2.34,2.34,0,0,0,0,2.34V24.52a2.34,2.34,0,0,0,2.34,2.34h15.5l7,6.42a1.07,1.07,0,0,0,1.79-.78V26.86h5.07A2.34,2.34,0,0,0,34,24.52V2.34A2.34,2.34,0,0,0,31.66,0ZM28.42,12.41a12.49,12.49,0,0,1-22.84,0,2,2,0,0,1,3.66-1.63,8.48,8.48,0,0,0,15.52,0,2,2,0,0,1,3.66,1.63Z"/></svg>