<svg id="Ebene_1" data-name="Ebene 1" xmlns="http://www.w3.org/2000/svg" viewBox="0 0 274.4 82.4"><defs><style>.cls-1{fill:#1da9d9;}.cls-2{fill:#3c3c3b;}</style></defs><path class="cls-1" d="M137.8,68.3l-7.1,8.2a4.33,4.33,0,1,0,6.6,5.6l7-8.1A43.53,43.53,0,0,1,137.8,68.3Z" transform="translate(-32.9 -1.3)"/><path class="cls-1" d="M174.2,33.7a4.13,4.13,0,0,0-3.3-1.5,4.46,4.46,0,0,0-3.3,1.5l-24,27.9a36,36,0,0,0,6.5,5.8l20.8-24.2,20.8,24.2a36,36,0,0,0,6.5-5.8Z" transform="translate(-32.9 -1.3)"/><path class="cls-1" d="M203.9,68.3a50.87,50.87,0,0,1-6.5,5.8l7,8.1a4.42,4.42,0,0,0,3.3,1.5,3.84,3.84,0,0,0,2.8-1.1,4.4,4.4,0,0,0,.5-6.1Z" transform="translate(-32.9 -1.3)"/><path class="cls-2" d="M170.9,1.3a36.4,36.4,0,1,0,36.4,36.4A36.4,36.4,0,0,0,170.9,1.3Zm0,63.8a27.4,27.4,0,1,1,27.4-27.4A27.44,27.44,0,0,1,170.9,65.1Z" transform="translate(-32.9 -1.3)"/><path class="cls-2" d="M42.1,54.7c0,7.7,5.1,10.7,11.5,10.7,6.2,0,11.5-2.9,11.5-10.5v-.1c0-17.2-31.5-8.9-31.5-34.5v-.1C33.5,8.1,41.8,1.3,53.4,1.3S73.3,8.2,73.3,20.2v.3c0,2-1.1,3-3.1,3H67a2.46,2.46,0,0,1-2.8-2.7v-.3c0-7.2-4.6-10.6-10.8-10.6S42.6,13.3,42.6,20.4v.1c0,17.2,31.5,8.9,31.5,34.5v.1c0,12.2-8.6,18.8-20.8,18.8-11.8.1-20.4-6.8-20.4-18.7v-.5a2.65,2.65,0,0,1,3-3h3.3c1.9,0,2.8.9,2.8,2.7l.1.3Z" transform="translate(-32.9 -1.3)"/><path class="cls-2" d="M123,50.4a2.65,2.65,0,0,1,3,3v.3C126,66,117.3,74,105.4,74c-12.1,0-21.2-7.2-21.2-21.6V23c0-14.4,9.1-21.7,21.2-21.7S126,9.5,126,21.7v.2a2.65,2.65,0,0,1-3,3h-3.3c-1.9,0-2.8-.9-2.8-2.7,0-7.8-4.7-12.3-11.4-12.3S93.3,13.4,93.3,23.8V51.4c0,10.4,5.5,13.9,12.2,13.9s11.4-4.5,11.4-12.3c0-1.8.9-2.7,2.8-2.7l3.3.1Z" transform="translate(-32.9 -1.3)"/><path class="cls-2" d="M218.2,5.4a2.69,2.69,0,0,1,3-3h18.3c12.3,0,19.4,6.3,19.4,19.4v3.9c0,13-7.2,19.4-19.4,19.4H227.3V69.8c0,2-1.1,3-3.1,3h-3a2.69,2.69,0,0,1-3-3Zm9.1,5.7V36.6h11c7.7,0,11.5-2.7,11.5-11.6V22.6c0-8.8-3.8-11.5-11.5-11.5Z" transform="translate(-32.9 -1.3)"/><path class="cls-2" d="M269,5.4a2.69,2.69,0,0,1,3-3h32.3a2.65,2.65,0,0,1,3,3V7.9c0,2-1,3.1-3,3.1H278.1V32.7h20.6a2.65,2.65,0,0,1,3,3v2.6c0,2-1,3.1-3,3.1H278.1V56.8c0,4,3.4,7.4,6.9,7.4h19.3c2,0,3,1.1,3,3.1v2.5a2.65,2.65,0,0,1-3,3H285a16.22,16.22,0,0,1-16.1-16.1L269,5.4Z" transform="translate(-32.9 -1.3)"/></svg>